<svg width="27" height="27" viewBox="0 0 27 27" fill="none" xmlns="http://www.w3.org/2000/svg">
<g filter="url(#filter0_d_3_517)">
<path d="M22.1414 5.324C22.1313 4.56662 21.9895 3.81678 21.7224 3.108C21.4908 2.51015 21.1369 1.9672 20.6836 1.51383C20.2302 1.06046 19.6873 0.706651 19.0894 0.475C18.3897 0.212357 17.6506 0.0703413 16.9034 0.0550001C15.9414 0.0120001 15.6364 0 13.1944 0C10.7524 0 10.4394 6.70552e-08 9.48441 0.0550001C8.73757 0.0704541 7.99875 0.212468 7.29941 0.475C6.70146 0.706489 6.15843 1.06024 5.70504 1.51363C5.25165 1.96702 4.8979 2.51006 4.66641 3.108C4.40324 3.80713 4.26153 4.54611 4.24741 5.293C4.20441 6.256 4.19141 6.561 4.19141 9.003C4.19141 11.445 4.19141 11.757 4.24741 12.713C4.26241 13.461 4.40341 14.199 4.66641 14.9C4.89828 15.4978 5.2523 16.0406 5.70584 16.4938C6.15938 16.947 6.70247 17.3006 7.30041 17.532C7.99784 17.8052 8.73678 17.9574 9.48541 17.982C10.4484 18.025 10.7534 18.038 13.1954 18.038C15.6374 18.038 15.9504 18.038 16.9054 17.982C17.6526 17.9673 18.3918 17.8256 19.0914 17.563C19.6891 17.3311 20.2319 16.9772 20.6852 16.5238C21.1386 16.0705 21.4925 15.5277 21.7244 14.93C21.9874 14.23 22.1284 13.492 22.1434 12.743C22.1864 11.781 22.1994 11.476 22.1994 9.033C22.1974 6.591 22.1974 6.281 22.1414 5.324ZM13.1884 13.621C10.6344 13.621 8.56541 11.552 8.56541 8.998C8.56541 6.444 10.6344 4.375 13.1884 4.375C14.4145 4.375 15.5904 4.86207 16.4574 5.72905C17.3243 6.59603 17.8114 7.7719 17.8114 8.998C17.8114 10.2241 17.3243 11.4 16.4574 12.267C15.5904 13.1339 14.4145 13.621 13.1884 13.621ZM17.9954 5.282C17.8538 5.28213 17.7136 5.25434 17.5827 5.20021C17.4519 5.14608 17.333 5.06668 17.2329 4.96655C17.1327 4.86643 17.0533 4.74754 16.9992 4.61669C16.9451 4.48584 16.9173 4.3456 16.9174 4.204C16.9174 4.0625 16.9453 3.92239 16.9994 3.79166C17.0536 3.66093 17.1329 3.54215 17.233 3.44209C17.3331 3.34204 17.4518 3.26267 17.5826 3.20852C17.7133 3.15437 17.8534 3.1265 17.9949 3.1265C18.1364 3.1265 18.2765 3.15437 18.4072 3.20852C18.538 3.26267 18.6568 3.34204 18.7568 3.44209C18.8569 3.54215 18.9362 3.66093 18.9904 3.79166C19.0445 3.92239 19.0724 4.0625 19.0724 4.204C19.0724 4.8 18.5904 5.282 17.9954 5.282Z" fill="white"/>
<path d="M13.1905 12.0011C14.849 12.0011 16.1935 10.6566 16.1935 8.99812C16.1935 7.33961 14.849 5.99512 13.1905 5.99512C11.532 5.99512 10.1875 7.33961 10.1875 8.99812C10.1875 10.6566 11.532 12.0011 13.1905 12.0011Z" fill="white"/>
</g>
<defs>
<filter id="filter0_d_3_517" x="0.191406" y="0" width="26.0081" height="26.0381" filterUnits="userSpaceOnUse" color-interpolation-filters="sRGB">
<feFlood flood-opacity="0" result="BackgroundImageFix"/>
<feColorMatrix in="SourceAlpha" type="matrix" values="0 0 0 0 0 0 0 0 0 0 0 0 0 0 0 0 0 0 127 0" result="hardAlpha"/>
<feOffset dy="4"/>
<feGaussianBlur stdDeviation="2"/>
<feComposite in2="hardAlpha" operator="out"/>
<feColorMatrix type="matrix" values="0 0 0 0 0 0 0 0 0 0 0 0 0 0 0 0 0 0 0.25 0"/>
<feBlend mode="normal" in2="BackgroundImageFix" result="effect1_dropShadow_3_517"/>
<feBlend mode="normal" in="SourceGraphic" in2="effect1_dropShadow_3_517" result="shape"/>
</filter>
</defs>
</svg>
